<svg width="658" height="1405" viewBox="0 0 658 1405" fill="none" xmlns="http://www.w3.org/2000/svg">
<g clip-path="url(#clip0_151_28)">
<rect width="658" height="1405" fill="white"/>
<path d="M-57.0699 776.11L-105.942 181.482C-105.942 181.482 -48.6102 22.1413 129.125 -114.004C306.86 -250.149 508.279 -368.987 795.945 -441.366C1083.61 -513.745 1176.38 -429.915 1176.38 -429.915C1182.01 -358.579 1216.14 53.0874 1217.69 72.6948C901.026 -67.7096 94.2175 384.001 -57.0699 776.11Z" fill="#F0BA41"/>
<path d="M660.525 698.178L663.3 101.553C663.3 101.553 600.769 -52.8909 431.668 -174.92C262.568 -296.949 73.3858 -399.896 -190.07 -449.869C-453.525 -499.842 -531.071 -409.105 -531.071 -409.105C-531.199 -337.547 -533.381 75.5246 -533.416 95.193C-258.631 -69.2199 497.48 318.909 660.525 698.178Z" fill="#D63421"/>
<path d="M751.014 620.419L753.789 23.794C753.789 23.794 691.258 -130.65 522.158 -252.679C353.057 -374.708 163.875 -477.655 -99.5805 -527.628C-363.036 -577.601 -440.582 -486.864 -440.582 -486.864C-440.709 -415.306 -442.892 -2.2343 -442.927 17.4341C-168.141 -146.979 587.969 241.15 751.014 620.419Z" fill="#D63421"/>
<path d="M660.089 684.075L669.254 1280.64C669.254 1280.64 601.438 1435.81 415.031 1559.81C228.624 1683.82 19.7386 1788.98 -272.109 1842.04C-563.957 1895.1 -650.935 1805.28 -650.935 1805.28C-651.807 1733.73 -658.442 1320.7 -658.681 1301.04C-352.074 1462.22 483.026 1065.24 660.089 684.075Z" fill="#2D3480"/>
<path d="M-28.2885 620.155L-64.5613 1215.68C-64.5613 1215.68 -10.8018 1373.39 151.18 1504.73C313.161 1636.06 496.264 1749.47 756.498 1814.15C1016.73 1878.84 1099.25 1792.6 1099.25 1792.6C1103.4 1721.16 1128.77 1308.87 1129.91 1289.23C846.325 1437.96 113.202 1007.98 -28.2885 620.155Z" fill="#D63421"/>
<path d="M-84.0132 761.099L-120.286 1356.63C-120.286 1356.63 -66.5265 1514.34 95.4549 1645.67C257.436 1777 440.539 1890.41 700.773 1955.1C961.007 2019.79 1043.53 1933.55 1043.53 1933.55C1047.67 1862.11 1073.05 1449.81 1074.18 1430.18C790.6 1578.9 57.4777 1148.93 -84.0132 761.099Z" fill="#D63421"/>
<path d="M165.673 722V704.5H174.148C175.898 704.5 177.248 704.95 178.198 705.85C179.148 706.733 179.623 707.867 179.623 709.25C179.623 711 178.907 712.25 177.473 713C178.407 713.35 179.132 713.883 179.648 714.6C180.182 715.317 180.448 716.183 180.448 717.2C180.448 718.633 179.965 719.792 178.998 720.675C178.032 721.558 176.682 722 174.948 722H165.673ZM174.548 714.475H168.948V719.1H174.573C175.34 719.1 175.94 718.892 176.373 718.475C176.823 718.042 177.048 717.5 177.048 716.85C177.048 716.2 176.823 715.642 176.373 715.175C175.923 714.708 175.315 714.475 174.548 714.475ZM173.873 707.4H168.948V711.675H174.173C174.773 711.675 175.265 711.467 175.648 711.05C176.032 710.633 176.223 710.117 176.223 709.5C176.223 708.9 176.007 708.4 175.573 708C175.157 707.6 174.59 707.4 173.873 707.4ZM184.659 712.95L183.359 710.5C184.892 709.567 186.601 709.1 188.484 709.1C192.401 709.1 194.359 711.117 194.359 715.15V722H191.209V720.525C190.076 721.692 188.759 722.275 187.259 722.275C185.909 722.275 184.826 721.917 184.009 721.2C183.209 720.483 182.809 719.492 182.809 718.225C182.809 716.892 183.251 715.85 184.134 715.1C185.034 714.35 186.226 713.975 187.709 713.975C188.892 713.975 190.059 714.225 191.209 714.725C191.142 712.808 190.151 711.85 188.234 711.85C187.167 711.85 185.976 712.217 184.659 712.95ZM188.034 719.9C189.251 719.9 190.309 719.333 191.209 718.2V716.8C190.309 716.367 189.384 716.15 188.434 716.15C187.684 716.15 187.092 716.325 186.659 716.675C186.226 717.008 186.009 717.475 186.009 718.075C186.009 718.658 186.201 719.108 186.584 719.425C186.967 719.742 187.451 719.9 188.034 719.9ZM206.592 722V714.825C206.592 713.842 206.367 713.125 205.917 712.675C205.483 712.225 204.917 712 204.217 712C203.283 712 202.517 712.342 201.917 713.025C201.317 713.708 201.017 714.5 201.017 715.4V722H197.792V709.35H201.017V711.15C201.95 709.783 203.333 709.1 205.167 709.1C206.567 709.1 207.692 709.533 208.542 710.4C209.392 711.267 209.817 712.592 209.817 714.375V722H206.592ZM222.146 716.975L225.121 717.9C224.671 719.217 223.904 720.275 222.821 721.075C221.754 721.875 220.504 722.275 219.071 722.275C217.204 722.275 215.654 721.65 214.421 720.4C213.204 719.133 212.596 717.567 212.596 715.7C212.596 713.817 213.204 712.25 214.421 711C215.654 709.733 217.204 709.1 219.071 709.1C220.504 709.1 221.754 709.5 222.821 710.3C223.904 711.083 224.671 712.133 225.121 713.45L222.146 714.375C221.596 712.792 220.571 712 219.071 712C218.104 712 217.321 712.35 216.721 713.05C216.121 713.733 215.821 714.617 215.821 715.7C215.821 716.767 216.121 717.65 216.721 718.35C217.321 719.033 218.104 719.375 219.071 719.375C219.804 719.375 220.437 719.167 220.971 718.75C221.504 718.317 221.896 717.725 222.146 716.975ZM227.122 715.7C227.122 713.817 227.747 712.25 228.997 711C230.247 709.733 231.814 709.1 233.697 709.1C235.581 709.1 237.147 709.733 238.397 711C239.647 712.25 240.272 713.817 240.272 715.7C240.272 717.567 239.647 719.133 238.397 720.4C237.147 721.65 235.581 722.275 233.697 722.275C231.814 722.275 230.247 721.65 228.997 720.4C227.747 719.133 227.122 717.567 227.122 715.7ZM230.347 715.7C230.347 716.75 230.656 717.625 231.272 718.325C231.906 719.025 232.714 719.375 233.697 719.375C234.681 719.375 235.481 719.033 236.097 718.35C236.714 717.65 237.022 716.767 237.022 715.7C237.022 714.617 236.714 713.733 236.097 713.05C235.481 712.35 234.681 712 233.697 712C232.714 712 231.914 712.35 231.297 713.05C230.681 713.733 230.364 714.617 230.347 715.7ZM258.676 711.025V704.5H261.926V722H258.676V720.35C257.71 721.633 256.36 722.275 254.626 722.275C252.91 722.275 251.518 721.65 250.451 720.4C249.385 719.15 248.851 717.583 248.851 715.7C248.851 713.8 249.385 712.225 250.451 710.975C251.518 709.725 252.91 709.1 254.626 709.1C256.36 709.1 257.71 709.742 258.676 711.025ZM258.751 715.7C258.751 714.633 258.435 713.75 257.801 713.05C257.185 712.35 256.393 712 255.426 712C254.46 712 253.668 712.35 253.051 713.05C252.435 713.733 252.126 714.617 252.126 715.7C252.126 716.75 252.435 717.625 253.051 718.325C253.685 719.025 254.476 719.375 255.426 719.375C256.393 719.375 257.185 719.025 257.801 718.325C258.435 717.625 258.751 716.75 258.751 715.7ZM274.967 718.125L276.692 720.25C275.342 721.6 273.634 722.275 271.567 722.275C269.5 722.275 267.859 721.642 266.642 720.375C265.442 719.108 264.842 717.542 264.842 715.675C264.842 713.792 265.442 712.225 266.642 710.975C267.842 709.725 269.35 709.1 271.167 709.1C273.017 709.1 274.509 709.725 275.642 710.975C276.792 712.208 277.367 713.625 277.367 715.225C277.367 715.742 277.317 716.217 277.217 716.65H268.167C268.35 717.533 268.742 718.233 269.342 718.75C269.959 719.25 270.75 719.5 271.717 719.5C272.95 719.5 274.034 719.042 274.967 718.125ZM273.117 712.55C272.617 712.067 271.984 711.825 271.217 711.825C270.45 711.825 269.8 712.058 269.267 712.525C268.734 712.975 268.375 713.592 268.192 714.375H274.117C273.967 713.625 273.634 713.017 273.117 712.55ZM289.713 704.5V711.075C290.68 709.758 292.038 709.1 293.788 709.1C295.505 709.1 296.896 709.725 297.963 710.975C299.03 712.225 299.563 713.8 299.563 715.7C299.563 717.583 299.03 719.15 297.963 720.4C296.896 721.65 295.505 722.275 293.788 722.275C292.038 722.275 290.68 721.617 289.713 720.3V722H286.488V704.5H289.713ZM289.638 715.7C289.638 716.75 289.946 717.625 290.563 718.325C291.196 719.025 291.996 719.375 292.963 719.375C293.93 719.375 294.721 719.025 295.338 718.325C295.971 717.625 296.288 716.75 296.288 715.7C296.288 714.633 295.971 713.75 295.338 713.05C294.721 712.35 293.93 712 292.963 712C291.996 712 291.196 712.35 290.563 713.05C289.946 713.75 289.638 714.633 289.638 715.7ZM305.579 709.35V716.525C305.579 717.508 305.804 718.233 306.254 718.7C306.704 719.15 307.27 719.375 307.954 719.375C308.887 719.375 309.654 719.033 310.254 718.35C310.854 717.65 311.154 716.85 311.154 715.95V709.35H314.379V722H311.154V720.2C310.22 721.583 308.837 722.275 307.004 722.275C305.604 722.275 304.479 721.842 303.629 720.975C302.779 720.092 302.354 718.758 302.354 716.975V709.35H305.579ZM327.433 718.125L329.158 720.25C327.808 721.6 326.099 722.275 324.033 722.275C321.966 722.275 320.324 721.642 319.108 720.375C317.908 719.108 317.308 717.542 317.308 715.675C317.308 713.792 317.908 712.225 319.108 710.975C320.308 709.725 321.816 709.1 323.633 709.1C325.483 709.1 326.974 709.725 328.108 710.975C329.258 712.208 329.833 713.625 329.833 715.225C329.833 715.742 329.783 716.217 329.683 716.65H320.633C320.816 717.533 321.208 718.233 321.808 718.75C322.424 719.25 323.216 719.5 324.183 719.5C325.416 719.5 326.499 719.042 327.433 718.125ZM325.583 712.55C325.083 712.067 324.449 711.825 323.683 711.825C322.916 711.825 322.266 712.058 321.733 712.525C321.199 712.975 320.841 713.592 320.658 714.375H326.583C326.433 713.625 326.099 713.017 325.583 712.55ZM341.504 722V714.825C341.504 713.842 341.279 713.125 340.829 712.675C340.395 712.225 339.829 712 339.129 712C338.195 712 337.429 712.342 336.829 713.025C336.229 713.708 335.929 714.5 335.929 715.4V722H332.704V709.35H335.929V711.15C336.862 709.783 338.245 709.1 340.079 709.1C341.479 709.1 342.604 709.533 343.454 710.4C344.304 711.267 344.729 712.592 344.729 714.375V722H341.504ZM349.283 712.95L347.983 710.5C349.516 709.567 351.225 709.1 353.108 709.1C357.025 709.1 358.983 711.117 358.983 715.15V722H355.833V720.525C354.7 721.692 353.383 722.275 351.883 722.275C350.533 722.275 349.45 721.917 348.633 721.2C347.833 720.483 347.433 719.492 347.433 718.225C347.433 716.892 347.875 715.85 348.758 715.1C349.658 714.35 350.85 713.975 352.333 713.975C353.516 713.975 354.683 714.225 355.833 714.725C355.766 712.808 354.775 711.85 352.858 711.85C351.791 711.85 350.6 712.217 349.283 712.95ZM352.658 719.9C353.875 719.9 354.933 719.333 355.833 718.2V716.8C354.933 716.367 354.008 716.15 353.058 716.15C352.308 716.15 351.716 716.325 351.283 716.675C350.85 717.008 350.633 717.475 350.633 718.075C350.633 718.658 350.825 719.108 351.208 719.425C351.591 719.742 352.075 719.9 352.658 719.9ZM361.741 718.95L364.766 718.025C365.049 719.175 365.949 719.75 367.466 719.75C368.932 719.75 369.666 719.383 369.666 718.65C369.666 718.5 369.632 718.358 369.566 718.225C369.499 718.092 369.391 717.975 369.241 717.875C369.091 717.775 368.941 717.692 368.791 717.625C368.657 717.542 368.466 717.467 368.216 717.4C367.982 717.333 367.782 717.283 367.616 717.25C367.449 717.2 367.232 717.142 366.966 717.075C366.699 717.008 366.499 716.958 366.366 716.925C364.932 716.558 363.816 716.067 363.016 715.45C362.232 714.833 361.841 713.975 361.841 712.875C361.841 711.692 362.307 710.767 363.241 710.1C364.174 709.433 365.432 709.1 367.016 709.1C368.616 709.1 369.941 709.45 370.991 710.15C372.041 710.85 372.566 711.833 372.566 713.1V713.25H369.441V713.2C369.441 712.7 369.232 712.317 368.816 712.05C368.399 711.767 367.816 711.625 367.066 711.625C366.416 711.625 365.916 711.733 365.566 711.95C365.232 712.167 365.066 712.442 365.066 712.775C365.066 712.892 365.082 713 365.116 713.1C365.149 713.183 365.199 713.267 365.266 713.35C365.349 713.433 365.424 713.508 365.491 713.575C365.574 713.642 365.682 713.708 365.816 713.775C365.966 713.825 366.099 713.875 366.216 713.925C366.332 713.958 366.482 714.008 366.666 714.075C366.866 714.125 367.032 714.167 367.166 714.2C367.299 714.233 367.482 714.283 367.716 714.35C367.949 714.4 368.132 714.442 368.266 714.475C368.816 714.625 369.274 714.758 369.641 714.875C370.007 714.992 370.416 715.167 370.866 715.4C371.316 715.617 371.674 715.858 371.941 716.125C372.207 716.375 372.432 716.708 372.616 717.125C372.799 717.525 372.891 717.983 372.891 718.5C372.891 719.733 372.407 720.675 371.441 721.325C370.491 721.958 369.191 722.275 367.541 722.275C365.974 722.275 364.674 721.992 363.641 721.425C362.624 720.858 361.991 720.033 361.741 718.95ZM385.294 720.3V726.475H382.069V709.35H385.294V711.075C386.261 709.758 387.619 709.1 389.369 709.1C391.086 709.1 392.477 709.725 393.544 710.975C394.611 712.208 395.144 713.775 395.144 715.675C395.144 717.575 394.611 719.15 393.544 720.4C392.477 721.65 391.086 722.275 389.369 722.275C387.619 722.275 386.261 721.617 385.294 720.3ZM386.144 713.05C385.527 713.733 385.219 714.608 385.219 715.675C385.219 716.742 385.527 717.625 386.144 718.325C386.777 719.025 387.577 719.375 388.544 719.375C389.511 719.375 390.302 719.025 390.919 718.325C391.552 717.625 391.869 716.742 391.869 715.675C391.869 714.608 391.552 713.733 390.919 713.05C390.302 712.35 389.511 712 388.544 712C387.577 712 386.777 712.35 386.144 713.05ZM401.31 709.35V713.825C401.693 712.642 402.301 711.592 403.135 710.675C403.968 709.742 404.985 709.217 406.185 709.1V712.875C404.951 713.058 403.826 713.625 402.81 714.575C401.81 715.508 401.31 716.567 401.31 717.75V722H398.085V709.35H401.31ZM409.561 712.95L408.261 710.5C409.795 709.567 411.503 709.1 413.386 709.1C417.303 709.1 419.261 711.117 419.261 715.15V722H416.111V720.525C414.978 721.692 413.661 722.275 412.161 722.275C410.811 722.275 409.728 721.917 408.911 721.2C408.111 720.483 407.711 719.492 407.711 718.225C407.711 716.892 408.153 715.85 409.036 715.1C409.936 714.35 411.128 713.975 412.611 713.975C413.795 713.975 414.961 714.225 416.111 714.725C416.045 712.808 415.053 711.85 413.136 711.85C412.07 711.85 410.878 712.217 409.561 712.95ZM412.936 719.9C414.153 719.9 415.211 719.333 416.111 718.2V716.8C415.211 716.367 414.286 716.15 413.336 716.15C412.586 716.15 411.995 716.325 411.561 716.675C411.128 717.008 410.911 717.475 410.911 718.075C410.911 718.658 411.103 719.108 411.486 719.425C411.87 719.742 412.353 719.9 412.936 719.9ZM413.936 708.175L411.586 707.225L414.961 702.475L417.336 704.375L413.936 708.175ZM431.594 716.975L434.569 717.9C434.119 719.217 433.352 720.275 432.269 721.075C431.202 721.875 429.952 722.275 428.519 722.275C426.652 722.275 425.102 721.65 423.869 720.4C422.652 719.133 422.044 717.567 422.044 715.7C422.044 713.817 422.652 712.25 423.869 711C425.102 709.733 426.652 709.1 428.519 709.1C429.952 709.1 431.202 709.5 432.269 710.3C433.352 711.083 434.119 712.133 434.569 713.45L431.594 714.375C431.044 712.792 430.019 712 428.519 712C427.552 712 426.769 712.35 426.169 713.05C425.569 713.733 425.269 714.617 425.269 715.7C425.269 716.767 425.569 717.65 426.169 718.35C426.769 719.033 427.552 719.375 428.519 719.375C429.252 719.375 429.886 719.167 430.419 718.75C430.952 718.317 431.344 717.725 431.594 716.975ZM435.97 712.225V709.35H438.245V706.05L441.47 704.975V709.35H445.67V712.225H441.47V717.275C441.47 718.642 442.012 719.325 443.095 719.325C443.645 719.325 444.345 719.092 445.195 718.625L446.27 721.25C445.187 721.933 443.97 722.275 442.62 722.275C439.704 722.275 438.245 720.542 438.245 717.075V712.225H435.97ZM448.353 722V709.35H451.578V722H448.353ZM451.353 707.2C450.97 707.583 450.503 707.775 449.953 707.775C449.403 707.775 448.928 707.583 448.528 707.2C448.145 706.817 447.953 706.35 447.953 705.8C447.953 705.25 448.145 704.783 448.528 704.4C448.928 704.017 449.403 703.825 449.953 703.825C450.503 703.825 450.97 704.017 451.353 704.4C451.753 704.783 451.953 705.25 451.953 705.8C451.953 706.35 451.753 706.817 451.353 707.2ZM464.089 716.975L467.064 717.9C466.614 719.217 465.847 720.275 464.764 721.075C463.697 721.875 462.447 722.275 461.014 722.275C459.147 722.275 457.597 721.65 456.364 720.4C455.147 719.133 454.539 717.567 454.539 715.7C454.539 713.817 455.147 712.25 456.364 711C457.597 709.733 459.147 709.1 461.014 709.1C462.447 709.1 463.697 709.5 464.764 710.3C465.847 711.083 466.614 712.133 467.064 713.45L464.089 714.375C463.539 712.792 462.514 712 461.014 712C460.047 712 459.264 712.35 458.664 713.05C458.064 713.733 457.764 714.617 457.764 715.7C457.764 716.767 458.064 717.65 458.664 718.35C459.264 719.033 460.047 719.375 461.014 719.375C461.747 719.375 462.381 719.167 462.914 718.75C463.447 718.317 463.839 717.725 464.089 716.975ZM470.841 712.95L469.541 710.5C471.074 709.567 472.782 709.1 474.666 709.1C478.582 709.1 480.541 711.117 480.541 715.15V722H477.391V720.525C476.257 721.692 474.941 722.275 473.441 722.275C472.091 722.275 471.007 721.917 470.191 721.2C469.391 720.483 468.991 719.492 468.991 718.225C468.991 716.892 469.432 715.85 470.316 715.1C471.216 714.35 472.407 713.975 473.891 713.975C475.074 713.975 476.241 714.225 477.391 714.725C477.324 712.808 476.332 711.85 474.416 711.85C473.349 711.85 472.157 712.217 470.841 712.95ZM474.216 719.9C475.432 719.9 476.491 719.333 477.391 718.2V716.8C476.491 716.367 475.566 716.15 474.616 716.15C473.866 716.15 473.274 716.325 472.841 716.675C472.407 717.008 472.191 717.475 472.191 718.075C472.191 718.658 472.382 719.108 472.766 719.425C473.149 719.742 473.632 719.9 474.216 719.9ZM483.298 718.95L486.323 718.025C486.607 719.175 487.507 719.75 489.023 719.75C490.49 719.75 491.223 719.383 491.223 718.65C491.223 718.5 491.19 718.358 491.123 718.225C491.057 718.092 490.948 717.975 490.798 717.875C490.648 717.775 490.498 717.692 490.348 717.625C490.215 717.542 490.023 717.467 489.773 717.4C489.54 717.333 489.34 717.283 489.173 717.25C489.007 717.2 488.79 717.142 488.523 717.075C488.257 717.008 488.057 716.958 487.923 716.925C486.49 716.558 485.373 716.067 484.573 715.45C483.79 714.833 483.398 713.975 483.398 712.875C483.398 711.692 483.865 710.767 484.798 710.1C485.732 709.433 486.99 709.1 488.573 709.1C490.173 709.1 491.498 709.45 492.548 710.15C493.598 710.85 494.123 711.833 494.123 713.1V713.25H490.998V713.2C490.998 712.7 490.79 712.317 490.373 712.05C489.957 711.767 489.373 711.625 488.623 711.625C487.973 711.625 487.473 711.733 487.123 711.95C486.79 712.167 486.623 712.442 486.623 712.775C486.623 712.892 486.64 713 486.673 713.1C486.707 713.183 486.757 713.267 486.823 713.35C486.907 713.433 486.982 713.508 487.048 713.575C487.132 713.642 487.24 713.708 487.373 713.775C487.523 713.825 487.657 713.875 487.773 713.925C487.89 713.958 488.04 714.008 488.223 714.075C488.423 714.125 488.59 714.167 488.723 714.2C488.857 714.233 489.04 714.283 489.273 714.35C489.507 714.4 489.69 714.442 489.823 714.475C490.373 714.625 490.832 714.758 491.198 714.875C491.565 714.992 491.973 715.167 492.423 715.4C492.873 715.617 493.232 715.858 493.498 716.125C493.765 716.375 493.99 716.708 494.173 717.125C494.357 717.525 494.448 717.983 494.448 718.5C494.448 719.733 493.965 720.675 492.998 721.325C492.048 721.958 490.748 722.275 489.098 722.275C487.532 722.275 486.232 721.992 485.198 721.425C484.182 720.858 483.548 720.033 483.298 718.95Z" fill="#04003B"/>
<path d="M264.854 672V627.2H286.55C291.03 627.2 294.486 628.352 296.918 630.656C299.35 632.917 300.566 635.819 300.566 639.36C300.566 643.84 298.731 647.04 295.062 648.96C297.451 649.856 299.307 651.221 300.63 653.056C301.995 654.891 302.678 657.109 302.678 659.712C302.678 663.381 301.44 666.347 298.966 668.608C296.491 670.869 293.035 672 288.598 672H264.854ZM287.574 652.736H273.238V664.576H287.638C289.6 664.576 291.136 664.043 292.246 662.976C293.398 661.867 293.974 660.48 293.974 658.816C293.974 657.152 293.398 655.723 292.246 654.528C291.094 653.333 289.536 652.736 287.574 652.736ZM285.846 634.624H273.238V645.568H286.614C288.15 645.568 289.408 645.035 290.39 643.968C291.371 642.901 291.862 641.579 291.862 640C291.862 638.464 291.307 637.184 290.198 636.16C289.131 635.136 287.68 634.624 285.846 634.624ZM311.729 672V627.2H333.425C337.905 627.2 341.361 628.352 343.793 630.656C346.225 632.917 347.441 635.819 347.441 639.36C347.441 643.84 345.606 647.04 341.937 648.96C344.326 649.856 346.182 651.221 347.505 653.056C348.87 654.891 349.553 657.109 349.553 659.712C349.553 663.381 348.315 666.347 345.841 668.608C343.366 670.869 339.91 672 335.473 672H311.729ZM334.449 652.736H320.113V664.576H334.513C336.475 664.576 338.011 664.043 339.121 662.976C340.273 661.867 340.849 660.48 340.849 658.816C340.849 657.152 340.273 655.723 339.121 654.528C337.969 653.333 336.411 652.736 334.449 652.736ZM332.721 634.624H320.113V645.568H333.489C335.025 645.568 336.283 645.035 337.265 643.968C338.246 642.901 338.737 641.579 338.737 640C338.737 638.464 338.182 637.184 337.073 636.16C336.006 635.136 334.555 634.624 332.721 634.624ZM358.604 672V627.2H377.548C383.094 627.2 387.404 628.779 390.476 631.936C393.59 635.093 395.148 639.04 395.148 643.776C395.148 648.555 393.59 652.523 390.476 655.68C387.361 658.837 383.052 660.416 377.548 660.416H366.988V672H358.604ZM366.988 652.672H375.82C382.902 652.672 386.444 649.707 386.444 643.776C386.444 637.888 382.902 634.944 375.82 634.944H366.988V652.672Z" fill="#04003B"/>
</g>
<defs>
<clipPath id="clip0_151_28">
<rect width="658" height="1405" fill="white"/>
</clipPath>
</defs>
</svg>
